<svg width="20" height="20" viewBox="0 0 20 20" fill="none" xmlns="http://www.w3.org/2000/svg">
<path d="M0 6C0 2.68629 2.68629 0 6 0H14C17.3137 0 20 2.68629 20 6V14C20 17.3137 17.3137 20 14 20H6C2.68629 20 0 17.3137 0 14V6Z" fill="white"/>
<path d="M14.455 17.668V16H16.495V17.668H14.455Z" fill="black"/>
<path d="M9.50966 18C8.44898 18 7.59902 17.8618 6.95981 17.5854C6.32059 17.302 5.85346 16.8563 5.55844 16.2482C5.26341 15.6331 5.09834 14.828 5.06322 13.8329C5.04215 13.2524 5.02459 12.5925 5.01054 11.853C5.00351 11.1067 5 10.3396 5 9.55183C5 8.76402 5.00351 8.00386 5.01054 7.27134C5.02459 6.53882 5.04215 5.89268 5.06322 5.33293C5.10537 4.28252 5.27746 3.43943 5.57951 2.80366C5.88859 2.16789 6.35922 1.70833 6.99142 1.425C7.63063 1.14167 8.47005 1 9.50966 1C10.9848 1 12.0595 1.32134 12.7339 1.96402C13.4152 2.5998 13.8016 3.66057 13.8929 5.14634C13.914 5.46423 13.9245 5.84431 13.9245 6.28659C13.9245 6.72195 13.914 7.10203 13.8929 7.42683H10.7319C10.753 7.03984 10.7635 6.56301 10.7635 5.99634C10.7635 5.42276 10.753 4.94593 10.7319 4.56585C10.7108 4.23415 10.5949 3.97846 10.3842 3.79878C10.1735 3.61911 9.88195 3.52927 9.50966 3.52927C9.10224 3.52927 8.78966 3.61911 8.5719 3.79878C8.36117 3.97846 8.24527 4.23415 8.2242 4.56585C8.18205 5.29146 8.15044 6.07581 8.12937 6.9189C8.10829 7.75508 8.09776 8.61199 8.09776 9.48963C8.09776 10.3673 8.10829 11.2276 8.12937 12.0707C8.15044 12.9069 8.18205 13.6878 8.2242 14.4134C8.24527 14.752 8.36117 15.0146 8.5719 15.2012C8.78966 15.3809 9.10224 15.4707 9.50966 15.4707C9.91005 15.4707 10.2297 15.3809 10.4685 15.2012C10.7143 15.0146 10.8513 14.752 10.8794 14.4134C10.8935 14.2545 10.9005 14.0472 10.9005 13.7915C10.9075 13.5289 10.9075 13.2697 10.9005 13.014C10.9005 12.7514 10.8935 12.5407 10.8794 12.3817H9.72039V9.68658H13.9561C13.9912 10.3154 14.0053 11.0065 13.9982 11.7598C13.9912 12.5061 13.9701 13.1972 13.935 13.8329C13.8648 15.3256 13.4855 16.3933 12.7971 17.036C12.1157 17.6787 11.0199 18 9.50966 18Z" fill="black"/>
</svg>
